<svg className="w-10 h-10" viewBox="0 0 1024 1012" fill="none" xmlns="http://www.w3.org/2000/svg">
    <path d="M293.89 677.65C245.1 686.77 210.67 638.2 231.82 594.66C231.884 594.528 231.9 594.378 231.865 594.236C231.831 594.093 231.747 593.968 231.63 593.88C166.45 545.82 131.74 468.81 140.03 388C147.35 316.65 190.67 250.52 254.29 215.61C338.23 169.54 440.18 180.31 512.32 243.97C512.593 244.21 512.867 244.21 513.14 243.97C560.6 202.28 620.66 182.55 683.25 188.27C780.95 197.19 862.69 271.28 881.89 367.25C896.4 439.78 875.1 513.61 823.85 567.11C823.617 567.357 823.55 567.64 823.65 567.96C837.45 611.6 803.88 651 758.64 644.09C758.24 644.023 758.09 644.19 758.19 644.59C769.92 689.72 732.5 726.41 688.08 714.21C687.667 714.097 687.49 714.253 687.55 714.68C694.1 759.4 650.09 792.13 609.05 776.06C608.981 776.032 608.907 776.02 608.832 776.023C608.758 776.027 608.685 776.046 608.618 776.08C608.551 776.114 608.491 776.162 608.444 776.221C608.396 776.279 608.36 776.347 608.34 776.42C605.19 787.65 600.23 794.56 591.46 803.56C572.827 822.687 554.19 841.8 535.55 860.9C528.99 867.627 524.06 872.09 520.76 874.29C500.18 888.03 472.66 885.19 454.47 869.29C437.82 854.74 429.23 837.24 432.85 814.63C432.91 814.263 432.757 814.113 432.39 814.18C410.36 818.53 391.7 810.26 377.44 794.17C365.54 780.73 360.69 765.03 363.51 747.19C363.57 746.81 363.413 746.657 363.04 746.73C342.89 750.38 325.79 744.26 311.49 730.02C296.99 715.57 290.62 699.01 294.35 678.11C294.423 677.73 294.27 677.577 293.89 677.65ZM381.25 446.11C367.29 418.39 372.31 385.21 394.52 363.02C429.627 327.953 464.7 292.907 499.74 257.88C499.987 257.633 499.98 257.393 499.72 257.16C426 192.18 317.34 187.9 238.94 247.46C128.07 331.68 130.41 497.3 242.5 579.27C242.787 579.483 243.057 579.46 243.31 579.2C261.817 560.173 280.353 541.173 298.92 522.2C304.287 516.72 308.717 512.85 312.21 510.59C343.24 490.51 384.3 504.19 397.53 538.49C401.063 547.657 401.953 557.737 400.2 568.73C400.14 569.13 400.307 569.29 400.7 569.21C423.28 564.55 442.12 572.36 457.03 588.96C469.01 602.307 473.637 618 470.91 636.04C470.857 636.387 471 636.527 471.34 636.46C489.24 633.16 505.38 637.65 518.86 649.39C535.45 663.84 543.87 681.04 540.3 703.69C540.24 704.05 540.39 704.2 540.75 704.14C557.183 701.36 571.607 704.527 584.02 713.64C598.3 724.13 608.02 738.01 610.07 756.1C610.11 756.427 610.277 756.67 610.57 756.83C623.343 763.603 635.79 764.05 647.91 758.17C668.28 748.28 676.18 723.17 665.32 704C663.433 700.673 659.68 696.133 654.06 690.38C636.493 672.38 618.92 654.39 601.34 636.41C599.05 634.07 596.31 631.67 595.57 628.5C594.07 622.01 600.4 615.67 606.75 617.63C608.497 618.17 610.607 619.713 613.08 622.26C632.967 642.68 652.87 663.087 672.79 683.48C673.77 684.487 675.25 686.297 677.23 688.91C678.13 690.103 679.227 691.007 680.52 691.62C687.96 695.16 693.73 697.79 702.14 698.38C716.21 699.35 729.75 693.01 737.01 680.86C746.13 665.63 743.18 646.76 732.7 632.77C731.527 631.203 728.62 628.037 723.98 623.27C705.067 603.85 686.14 584.44 667.2 565.04C660.69 558.37 667.88 546.9 676.79 550.31C678.41 550.937 680.39 552.45 682.73 554.85C701.323 573.937 719.923 593.017 738.53 612.09C750.01 623.87 763.33 629.72 779.36 625.5C806.84 618.28 817.79 586 800.55 563.54C799.923 562.727 795.233 557.997 786.48 549.35C723.493 487.163 660.453 424.983 597.36 362.81C597.107 362.563 596.857 362.563 596.61 362.81C564.823 394.497 533.083 426.227 501.39 458C494.797 464.613 489.877 469.097 486.63 471.45C451.31 497.05 400.9 485.14 381.25 446.11ZM590.35 343.59C594.63 339.34 599.81 339.59 604.03 343.76C673.997 412.807 743.897 481.753 813.73 550.6C813.797 550.668 813.878 550.721 813.967 550.756C814.056 550.792 814.151 550.808 814.246 550.806C814.342 550.803 814.436 550.78 814.523 550.74C814.609 550.699 814.687 550.642 814.75 550.57C858.56 501.64 877.07 436.36 864.27 371.71C845.3 275.88 760.91 206.32 663.24 205.38C608.91 204.86 557.92 226.02 518.73 263.24C517.04 264.84 516.3 267.07 514.44 268.94C480.167 303.207 445.9 337.473 411.64 371.74C405.813 377.573 401.8 382.257 399.6 385.79C393.26 395.99 390.713 407.127 391.96 419.2C396.03 458.7 440.42 479.85 473.53 458.28C477.063 455.973 482.06 451.587 488.52 445.12C522.387 411.207 556.33 377.363 590.35 343.59ZM379.33 575.31C391.58 547.26 370.68 517.44 340.25 519.5C334.57 519.88 329.193 521.56 324.12 524.54C321.027 526.353 316.85 529.947 311.59 535.32C293.77 553.513 275.987 571.743 258.24 590.01C253.04 595.37 249.56 599.65 247.8 602.85C239.36 618.19 243.09 638.6 255.72 650.12C268.69 661.94 287.52 664.29 302.68 655.12C305.98 653.127 310.443 649.237 316.07 643.45C334.863 624.117 353.64 604.767 372.4 585.4C375.467 582.233 377.777 578.87 379.33 575.31ZM443.396 651.966C446.728 648.575 449.36 644.562 451.141 640.154C452.922 635.746 453.817 631.031 453.775 626.277C453.734 621.523 452.756 616.825 450.899 612.449C449.041 608.073 446.34 604.105 442.95 600.773L438.413 596.316C435.023 592.984 431.009 590.352 426.601 588.571C422.193 586.79 417.478 585.895 412.724 585.937C407.971 585.978 403.272 586.955 398.896 588.813C394.52 590.67 390.553 593.372 387.221 596.762L321.644 663.494C318.312 666.885 315.68 670.898 313.899 675.306C312.118 679.714 311.223 684.429 311.265 689.183C311.306 693.936 312.284 698.635 314.141 703.011C315.999 707.387 318.7 711.355 322.09 714.687L326.627 719.144C330.017 722.476 334.031 725.108 338.439 726.889C342.847 728.67 347.562 729.565 352.316 729.523C357.069 729.482 361.768 728.505 366.144 726.647C370.52 724.79 374.487 722.088 377.819 718.698L443.396 651.966ZM512.822 719.629C516.146 716.245 518.772 712.24 520.549 707.843C522.326 703.445 523.219 698.74 523.178 693.996C523.136 689.253 522.161 684.565 520.308 680.198C518.454 675.832 515.759 671.874 512.376 668.549L507.697 663.951C500.864 657.237 491.644 653.512 482.065 653.595C472.486 653.679 463.332 657.564 456.617 664.397L390.998 731.171C387.674 734.555 385.048 738.56 383.271 742.957C381.494 747.355 380.601 752.06 380.642 756.803C380.684 761.547 381.659 766.235 383.512 770.602C385.366 774.968 388.061 778.926 391.444 782.251L396.123 786.849C402.956 793.563 412.176 797.288 421.755 797.205C431.334 797.121 440.488 793.236 447.203 786.403L512.822 719.629ZM582.122 787.094C585.446 783.688 588.066 779.66 589.833 775.242C591.601 770.823 592.48 766.099 592.422 761.34C592.364 756.582 591.369 751.881 589.495 747.507C587.62 743.132 584.902 739.17 581.496 735.846L577.015 731.474C570.136 724.762 560.873 721.056 551.262 721.174C541.651 721.291 532.481 725.222 525.768 732.1L460.438 799.046C457.114 802.452 454.494 806.48 452.727 810.898C450.959 815.317 450.08 820.041 450.138 824.8C450.196 829.558 451.191 834.259 453.065 838.633C454.94 843.008 457.658 846.97 461.064 850.294L465.545 854.666C472.424 861.378 481.687 865.084 491.298 864.966C500.909 864.849 510.079 860.918 516.792 854.04L582.122 787.094Z" fill="#1D4856"/>
    <path d="M394.52 363.02C372.31 385.21 367.29 418.39 381.25 446.11C400.9 485.14 451.31 497.05 486.63 471.45C489.877 469.097 494.797 464.613 501.39 458C533.083 426.227 564.823 394.497 596.61 362.81C596.857 362.563 597.107 362.563 597.36 362.81C660.453 424.983 723.493 487.163 786.48 549.35C795.233 557.997 799.923 562.727 800.55 563.54C817.79 586 806.84 618.28 779.36 625.5C763.33 629.72 750.01 623.87 738.53 612.09C719.923 593.017 701.323 573.937 682.73 554.85C680.39 552.45 678.41 550.937 676.79 550.31C667.88 546.9 660.69 558.37 667.2 565.04C686.14 584.44 705.067 603.85 723.98 623.27C728.62 628.037 731.527 631.203 732.7 632.77C743.18 646.76 746.13 665.63 737.01 680.86C729.75 693.01 716.21 699.35 702.14 698.38C693.73 697.79 687.96 695.16 680.52 691.62C679.227 691.007 678.13 690.103 677.23 688.91C675.25 686.297 673.77 684.487 672.79 683.48C652.87 663.087 632.967 642.68 613.08 622.26C610.607 619.713 608.497 618.17 606.75 617.63C600.4 615.67 594.07 622.01 595.57 628.5C596.31 631.67 599.05 634.07 601.34 636.41C618.92 654.39 636.493 672.38 654.06 690.38C659.68 696.133 663.433 700.673 665.32 704C676.18 723.17 668.28 748.28 647.91 758.17C635.79 764.05 623.343 763.603 610.57 756.83C610.277 756.67 610.11 756.427 610.07 756.1C608.02 738.01 598.3 724.13 584.02 713.64C571.607 704.527 557.183 701.36 540.75 704.14C540.39 704.2 540.24 704.05 540.3 703.69C543.87 681.04 535.45 663.84 518.86 649.39C505.38 637.65 489.24 633.16 471.34 636.46C471 636.527 470.857 636.387 470.91 636.04C473.637 618 469.01 602.307 457.03 588.96C442.12 572.36 423.28 564.55 400.7 569.21C400.307 569.29 400.14 569.13 400.2 568.73C401.953 557.737 401.063 547.657 397.53 538.49C384.3 504.19 343.24 490.51 312.21 510.59C308.717 512.85 304.287 516.72 298.92 522.2C280.353 541.173 261.817 560.173 243.31 579.2C243.057 579.46 242.787 579.483 242.5 579.27C130.41 497.3 128.07 331.68 238.94 247.46C317.34 187.9 426 192.18 499.72 257.16C499.98 257.393 499.987 257.633 499.74 257.88C464.7 292.907 429.627 327.953 394.52 363.02Z" fill="#ABBAC0"/>
    <path d="M604.03 343.76C599.81 339.59 594.63 339.34 590.35 343.59C556.33 377.363 522.387 411.207 488.52 445.12C482.06 451.587 477.063 455.973 473.53 458.28C440.42 479.85 396.03 458.7 391.96 419.2C390.713 407.127 393.26 395.99 399.6 385.79C401.8 382.257 405.813 377.573 411.64 371.74C445.9 337.473 480.167 303.207 514.44 268.94C516.3 267.07 517.04 264.84 518.73 263.24C557.92 226.02 608.91 204.86 663.24 205.38C760.91 206.32 845.3 275.88 864.27 371.71C877.07 436.36 858.56 501.64 814.75 550.57C814.687 550.642 814.609 550.699 814.523 550.74C814.436 550.78 814.342 550.803 814.246 550.806C814.151 550.808 814.056 550.792 813.967 550.756C813.878 550.721 813.797 550.668 813.73 550.6C743.897 481.753 673.997 412.807 604.03 343.76Z" fill="#ABBAC0"/>
    <path d="M379.33 575.31C377.777 578.87 375.467 582.233 372.4 585.4C353.64 604.767 334.863 624.117 316.07 643.45C310.443 649.237 305.98 653.127 302.68 655.12C287.52 664.29 268.69 661.94 255.72 650.12C243.09 638.6 239.36 618.19 247.8 602.85C249.56 599.65 253.04 595.37 258.24 590.01C275.987 571.743 293.77 553.513 311.59 535.32C316.85 529.947 321.027 526.353 324.12 524.54C329.193 521.56 334.57 519.88 340.25 519.5C370.68 517.44 391.58 547.26 379.33 575.31Z" fill="#ABBAC0"/>
    <path d="M442.95 600.773L438.413 596.316C424.154 582.303 401.234 582.503 387.221 596.762L321.644 663.494C307.631 677.754 307.831 700.674 322.09 714.687L326.627 719.144C340.887 733.158 363.806 732.957 377.819 718.698L443.396 651.966C457.409 637.706 457.209 614.786 442.95 600.773Z" fill="#ABBAC0"/>
    <path d="M512.376 668.549L507.697 663.951C493.469 649.969 470.6 650.169 456.617 664.397L390.998 731.171C377.016 745.4 377.216 768.269 391.444 782.251L396.123 786.849C410.351 800.831 433.22 800.631 447.202 786.403L512.822 719.629C526.804 705.4 526.604 682.531 512.376 668.549Z" fill="#ABBAC0"/>
    <path d="M581.496 735.846L577.015 731.474C562.691 717.496 539.747 717.776 525.768 732.1L460.438 799.046C446.46 813.371 446.74 836.315 461.064 850.294L465.545 854.666C479.869 868.644 502.813 868.364 516.792 854.04L582.122 787.094C596.1 772.769 595.82 749.825 581.496 735.846Z" fill="#ABBAC0"/>
</svg>